<?xml version='1.0' encoding='iso-8859-1'?>
<!DOCTYPE svg PUBLIC '-//W3C//DTD SVG 1.1//EN' 'http://www.w3.org/Graphics/SVG/1.1/DTD/svg11.dtd'>
<svg version="1.1" xmlns="http://www.w3.org/2000/svg" viewBox="0 0 297 297" xmlns:xlink="http://www.w3.org/1999/xlink" enable-background="new 0 0 297 297">
  <g>
    <path d="m284.85,0h-272.7c-4.849,0-8.78,3.931-8.78,8.78v187.481c-8.88178e-16,4.849 3.931,8.78 8.78,8.78h150.541l-3.052-4.645c-1.118-1.701-1.709-3.676-1.709-5.713v-52.186c0-14.79 9.452-27.877 23.519-32.564l.178-.057 8.543-2.621c0.989-0.305 2.016-0.459 3.05-0.459 2.653,0 5.144,1.025 7.025,2.749l1.79-2.002c-13.505-5.742-22.999-19.142-22.999-34.718 0-20.791 16.915-37.706 37.706-37.706 20.791,0 37.706,16.915 37.706,37.706 0,15.573-9.491,28.97-22.991,34.715 0.656,0.598 1.258,1.258 1.784,1.986 2.637-2.412 6.44-3.388 10.082-2.27l8.801,2.705c14.018,4.623 23.43,17.634 23.43,32.399v52.322c0,2.037-0.591,4.012-1.709,5.714l-3.052,4.644h14.057c4.849,0 8.78-3.931 8.78-8.78v-187.48c0-4.849-3.931-8.78-8.78-8.78zm-127.57,93.999c0,4.849-3.931,8.78-8.78,8.78s-8.78-3.931-8.78-8.78v-12.89l-36.659,36.659c-3.43,3.428-8.988,3.428-12.418,0l-10.835-10.836-27.879,27.88c-1.715,1.714-3.961,2.571-6.209,2.571-2.247,0-4.494-0.857-6.209-2.571-3.429-3.429-3.429-8.989 0-12.418l34.089-34.088c3.43-3.428 8.988-3.428 12.418,0l10.835,10.836 30.45-30.451h-12.89c-4.849,0-8.78-3.931-8.78-8.78 0-4.849 3.931-8.78 8.78-8.78h34.087c4.849,0 8.78,3.931 8.78,8.78v34.088z"/>
    <path d="m244.118,72.826c0-15.095-12.281-27.376-27.376-27.376-15.095,0-27.376,12.281-27.376,27.376 0,15.095 12.281,27.376 27.376,27.376 15.094,0 27.376-12.281 27.376-27.376z"/>
    <path d="m248.842,119.757l-.092-.031-8.462-2.595-18.071,49.378c-0.83,2.277-2.904,3.766-5.314,3.83-2.57,0.068-4.849-1.669-5.729-4.084l-17.887-49.077-8.631,2.574c-9.784,3.261-16.396,12.41-16.396,22.746v52.186l19.196,29.234v70.727c0,1.296 1.06,2.356 2.356,2.356h53.86c1.296,0 2.356-1.06 2.356-2.356v-70.727l19.185-29.195 .011-52.362c0-10.311-6.583-19.394-16.382-22.604z"/>
    <path d="m213.577,129.055l-2.063,17.405 4.063,10.808c0.396,1.087 1.933,1.087 2.33,0l4.063-10.808-2.063-17.405 4.407-6.644c0.822-1.423 0.654-3.245-0.504-4.505-0.748-0.814-1.84-1.224-2.946-1.224h-8.245c-1.105,0-2.198,0.41-2.946,1.224-1.157,1.261-1.325,3.082-0.504,4.505l4.408,6.644z"/>
  </g>
</svg>
