<?xml version="1.0" encoding="iso-8859-1"?>
<!-- Generator: Adobe Illustrator 18.1.1, SVG Export Plug-In . SVG Version: 6.00 Build 0)  -->
<svg version="1.1" id="Capa_1" xmlns="http://www.w3.org/2000/svg" xmlns:xlink="http://www.w3.org/1999/xlink" x="0px" y="0px"
	 viewBox="0 0 373.562 373.562" style="enable-background:new 0 0 373.562 373.562;" xml:space="preserve">
<g>
	<g>
		<circle style="fill:#010002;" cx="48.338" cy="58.428" r="24.548"/>
		<circle style="fill:#010002;" cx="330.26" cy="58.428" r="24.548"/>
		<path style="fill:#010002;" d="M99.778,166.446h189.949v25.932H99.778L99.778,166.446z"/>
		<path style="fill:#010002;" d="M124.69,227.666c-16.117-5.37-32.257-10.699-48.481-15.735c0.036-0.621,0.095-1.223,0.095-1.874
			c0-26.803,0-53.606,0-80.41c19.225-2.488,37.991-8.252,57.222-10.919c13.634-1.891,12.686-17.841,3.765-24.655v-9.326h2.936
			l8.938-23.134h-28.85l8.932,23.134h2.685v6.731c-1.844-0.471-3.843-0.621-6.009-0.328c-19.834,2.739-39.143,9.35-59.096,10.818
			c-15.949-12.829-46.452-6.074-46.452,20.538c0,29.047,0,58.093,0,87.158c0,15.896,10.86,24.846,22.996,26.815
			c20.329,5.758,40.437,12.25,60.492,18.903c0,20.896,0,41.792,0,62.7c0,21.212,32.889,21.212,32.889,0c0-24.124,0-48.236,0-72.36
			c0-2.273-0.442-4.254-1.122-6.05C134.535,234.498,131.086,229.796,124.69,227.666z"/>
		<path style="fill:#010002;" d="M343.984,234.552c6.581-1.82,10.096-6.373,11.212-11.492c1.897-3.622,3.037-7.948,3.037-13.008
			c0-29.053,0-58.105,0-87.152c0-29.948-38.451-35.246-51.572-15.645c-18.193-2.076-35.927-7.769-54.078-10.275
			c-1.259-0.173-2.452-0.173-3.604-0.072V84.736h2.936l8.944-23.134h-28.856l8.932,23.134h2.679v13.658
			c-11.057,5.561-13.408,24.112,1.366,26.153c19.267,2.673,38.063,8.455,57.312,10.937c0,24.721,0,49.436,0,74.168
			c0,1.014,0.066,2.005,0.143,2.972c-14.696,4.612-29.327,9.452-43.952,14.32c-6.379,2.13-9.827,6.82-10.949,11.993
			c-0.674,1.784-1.122,3.777-1.122,6.062c0,24.112,0,48.236,0,72.36c0,21.212,32.895,21.212,32.895,0c0-20.908,0-41.804,0-62.712
			C300.748,247.559,322.217,240.59,343.984,234.552z"/>
		<path style="fill:#010002;" d="M61.554,250.847h-46.81C6.605,250.847,0,256.277,0,262.978c0,6.713,6.605,12.143,14.744,12.143
			h15.084v51.094c0,0.233,0.042,0.418,0.06,0.638h-3.413c-3.55,0-6.414,2.864-6.414,6.408s2.864,6.42,6.414,6.42h23.36
			c3.544,0,6.408-2.876,6.408-6.42s-2.864-6.408-6.408-6.408H46.41c0.018-0.221,0.066-0.406,0.066-0.638V275.12h15.078
			c8.157,0,14.75-5.43,14.75-12.143C76.304,256.277,69.711,250.847,61.554,250.847z"/>
		<path style="fill:#010002;" d="M358.812,250.847h-46.816c-8.145,0-14.744,5.43-14.744,12.131c0,6.713,6.593,12.143,14.744,12.143
			h15.084v51.094c0,0.233,0.042,0.418,0.06,0.638h-3.419c-3.544,0-6.408,2.864-6.408,6.408s2.864,6.42,6.408,6.42h23.366
			c3.544,0,6.408-2.876,6.408-6.42s-2.864-6.408-6.408-6.408h-3.425c0.018-0.221,0.066-0.406,0.066-0.638V275.12h15.084
			c8.139,0,14.75-5.43,14.75-12.143C373.562,256.277,366.951,250.847,358.812,250.847z"/>
	</g>
</g>
<g>
</g>
<g>
</g>
<g>
</g>
<g>
</g>
<g>
</g>
<g>
</g>
<g>
</g>
<g>
</g>
<g>
</g>
<g>
</g>
<g>
</g>
<g>
</g>
<g>
</g>
<g>
</g>
<g>
</g>
</svg>
