<?xml version="1.0" encoding="iso-8859-1"?>
<!-- Generator: Adobe Illustrator 16.0.0, SVG Export Plug-In . SVG Version: 6.00 Build 0)  -->
<!DOCTYPE svg PUBLIC "-//W3C//DTD SVG 1.1//EN" "http://www.w3.org/Graphics/SVG/1.1/DTD/svg11.dtd">
<svg version="1.1" id="Capa_1" xmlns="http://www.w3.org/2000/svg" xmlns:xlink="http://www.w3.org/1999/xlink" x="0px" y="0px"
	 width="508.338px" height="508.338px" viewBox="0 0 508.338 508.338" style="enable-background:new 0 0 508.338 508.338;"
	 xml:space="preserve">
<g>
	<path d="M298.701,231.436h-27.875c9.835,0,18.902-3.204,26.297-8.583c40.577-16.893,69.186-56.933,69.186-103.557
		c0-1.862-0.131-3.691-0.255-5.518l-0.514-8.195H142.792l-0.514,8.195c-0.127,1.826-0.248,3.656-0.248,5.518
		c0,46.624,28.617,86.664,69.191,103.557c7.391,5.379,16.453,8.583,26.288,8.583h-27.878c-74.115,0-134.417,60.302-134.417,134.417
		v108.966l0.278,1.695l7.519,2.354c70.716,22.094,132.176,29.471,182.754,29.471c98.787,0,156.045-28.171,159.591-29.962
		l7.022-3.564l0.744,0.007V365.853C433.117,291.738,372.822,231.436,298.701,231.436z M314.595,196.081
		c0.645-3.038,1.011-6.18,1.011-9.416c0-12.022,0.319-22.91-2.175-30.961l36.552-16.718
		C345.254,162,332.404,182.046,314.595,196.081z M159.479,143.431l33.55,13.255c-1.351,7.941-0.29,18.43-0.29,29.979
		c0,3.23,0.364,6.378,1.011,9.422C177.11,182.959,164.872,164.573,159.479,143.431z M212.457,141.894
		c-9.46,0-14.55,2.946-17.251,7.953l-37.471-14.8c-0.804-4.944-1.354-9.98-1.386-15.149h195.644
		c-0.012,3.585-0.271,7.12-0.674,10.61l-41.003,18.758c-3.387-4.649-8.931-7.371-18.01-7.371H212.457z M407.335,416.556h-45.437
		v43.911h-26.421v-43.911h-42.403v-26.427h42.403v-43.918h26.421v43.918h45.437V416.556z M360.947,97.794h-213.55
		C147.397,57.615,162.064,0,202.246,0h103.855C346.271,0,360.947,57.615,360.947,97.794z"/>
</g>
<g>
</g>
<g>
</g>
<g>
</g>
<g>
</g>
<g>
</g>
<g>
</g>
<g>
</g>
<g>
</g>
<g>
</g>
<g>
</g>
<g>
</g>
<g>
</g>
<g>
</g>
<g>
</g>
<g>
</g>
</svg>
