<?xml version="1.0" encoding="iso-8859-1"?>
<!-- Generator: Adobe Illustrator 16.0.0, SVG Export Plug-In . SVG Version: 6.00 Build 0)  -->
<!DOCTYPE svg PUBLIC "-//W3C//DTD SVG 1.1//EN" "http://www.w3.org/Graphics/SVG/1.1/DTD/svg11.dtd">
<svg version="1.1" id="Capa_1" xmlns="http://www.w3.org/2000/svg" xmlns:xlink="http://www.w3.org/1999/xlink" x="0px" y="0px"
	 width="90.728px" height="90.729px" viewBox="0 0 90.728 90.729" style="enable-background:new 0 0 90.728 90.729;"
	 xml:space="preserve">
<g>
	<path d="M62.455,16.709c0.484,1.62,0.752,3.333,0.752,5.109c0,9.854-7.988,17.842-17.842,17.842
		c-9.854,0-17.843-7.987-17.843-17.842c0-1.851,0.282-3.637,0.806-5.314c0.287,0.13,0.621,0.205,1.003,0.205l15.633,2.5
		L62.455,16.709z M49.712,50.975l2.786,31.296l-7.968,8.458l-6.901-8.364l3.286-31.791l-5.078-9.428
		c0.78-0.158,1.49-0.269,1.958-0.269h15.137c0.787,0,1.726,0.169,2.771,0.424L49.712,50.975z M47.839,49.575l4.106-4.91
		c0-1.547-1.254-2.801-2.802-2.801c0,0-2.061,0.321-3.733,0.321s-3.827-0.321-3.827-0.321c-1.547,0-2.801,1.254-2.801,2.801
		l3.736,4.765L39.902,80.48l4.973,6.941l5.134-6.441L47.839,49.575z M33.794,41.621c-1.16,0.298-2.152,0.593-2.404,0.685
		c-9.48,2.78-16.439,11.52-16.439,21.888v18.519l0.048,0.289l1.278,0.398c6.712,2.097,12.932,3.413,18.615,4.167l3.964-36.55
		L33.794,41.621z M59.417,42.33h0.035c-0.115-0.032-0.227-0.063-0.339-0.096c-0.074-0.021-0.146-0.049-0.222-0.069h-0.024
		c-0.394-0.111-0.774-0.22-1.151-0.326l-4.943,9.176l3.998,36.858c10.955-1.253,17.211-4.315,17.688-4.557l1.194-0.606l0.125,0.002
		v-18.52C75.778,53.854,68.857,45.135,59.417,42.33z M27.83,13.729l17.034,2.5l18.003-2.5c0,0-0.253-2.962-2.357-10.153H73.13V0
		H19.428v3.575h10.759L27.83,13.729z"/>
</g>
<g>
</g>
<g>
</g>
<g>
</g>
<g>
</g>
<g>
</g>
<g>
</g>
<g>
</g>
<g>
</g>
<g>
</g>
<g>
</g>
<g>
</g>
<g>
</g>
<g>
</g>
<g>
</g>
<g>
</g>
</svg>
